<svg width="91" height="90" viewBox="0 0 91 90" fill="none" xmlns="http://www.w3.org/2000/svg">
<g clip-path="url(#clip0_2146_21101)">
<path d="M46.985 34.5H18.5C14.1239 34.5 9.92709 32.7616 6.83274 29.6673C3.73839 26.5729 2 22.3761 2 18C2 13.6239 3.73839 9.42709 6.83274 6.33274C9.92709 3.23839 14.1239 1.5 18.5 1.5H51.5C55.3485 1.49727 59.077 2.8399 62.0402 5.29561C65.0034 7.75132 67.0151 11.1656 67.727 14.9477C68.4389 18.7298 67.8064 22.6418 65.9388 26.0069C64.0712 29.3719 61.0861 31.9783 57.5 33.375L46.985 34.5Z" fill="#3AC45B"/>
<path d="M89 54.8999V71.9999C89 76.376 87.2616 80.5728 84.1673 83.6672C81.0729 86.7615 76.8761 88.4999 72.5 88.4999H59.72C56.6959 88.4997 53.7299 87.6684 51.1462 86.0968C48.5625 84.5252 46.4604 82.2737 45.0695 79.5884L29.585 49.6949C29.2049 48.9463 29.0046 48.1194 29 47.2799C28.9964 46.1223 29.3743 44.9957 30.0751 44.0743C30.7759 43.1529 31.7607 42.4881 32.8773 42.1824C33.9939 41.8768 35.18 41.9475 36.2524 42.3836C37.3247 42.8197 38.2236 43.5968 38.81 44.5949L46.955 58.4249L47 20.2499C47.0013 19.4671 47.1772 18.6945 47.515 17.9883C47.8528 17.2821 48.3439 16.6603 48.9526 16.168C49.5612 15.6758 50.2721 15.3256 51.0333 15.143C51.7944 14.9603 52.5868 14.9499 53.3525 15.1124C54.5442 15.3867 55.6059 16.0611 56.3606 17.0233C57.1153 17.9854 57.5175 19.1772 57.5 20.3999V50.2499C57.5013 49.4671 57.6772 48.6945 58.015 47.9883C58.3528 47.2821 58.8439 46.6603 59.4526 46.168C60.0612 45.6758 60.7721 45.3256 61.5333 45.143C62.2944 44.9603 63.0868 44.9499 63.8525 45.1124C65.0442 45.3867 66.1059 46.0611 66.8606 47.0233C67.6153 47.9854 68.0175 49.1772 68 50.3999V51.7499C68.0013 50.9671 68.1772 50.1945 68.515 49.4883C68.8528 48.7821 69.3439 48.1603 69.9526 47.668C70.5612 47.1758 71.2721 46.8256 72.0333 46.643C72.7944 46.4603 73.5868 46.4499 74.3525 46.6124C75.5442 46.8867 76.6059 47.5611 77.3606 48.5233C78.1153 49.4854 78.5175 50.6772 78.5 51.8999V54.7499C78.5013 53.9671 78.6772 53.1945 79.015 52.4883C79.3528 51.7821 79.8439 51.1603 80.4526 50.668C81.0612 50.1758 81.7721 49.8256 82.5333 49.643C83.2944 49.4603 84.0868 49.4499 84.8525 49.6124C86.0442 49.8867 87.1059 50.5611 87.8606 51.5233C88.6153 52.4854 89.0175 53.6772 89 54.8999Z" fill="#F6CFAE"/>
<path d="M85.1525 48.15C84.1821 47.946 83.1788 47.9579 82.2135 48.1847C81.2481 48.4115 80.3445 48.8477 79.5665 49.4625C79.206 48.4478 78.6064 47.5348 77.8185 46.8006C77.0307 46.0665 76.0776 45.5328 75.04 45.2448C74.0023 44.9567 72.9106 44.9227 71.857 45.1456C70.8035 45.3686 69.819 45.8419 68.987 46.5255C68.837 46.644 68.7035 46.767 68.57 46.896C68.1072 46.0717 67.4737 45.3557 66.7118 44.7959C65.95 44.2361 65.0775 43.8455 64.1525 43.65C63.2709 43.4651 62.3614 43.4574 61.4768 43.6274C60.5922 43.7974 59.7503 44.1416 59 44.64V34.35C62.7373 32.643 65.7776 29.708 67.6152 26.0331C69.4528 22.3582 69.977 18.165 69.1005 14.1509C68.2241 10.1368 65.9998 6.54364 62.7977 3.96914C59.5957 1.39465 55.6087 -0.00604471 51.5 1.96091e-05H18.5C13.7261 1.96802e-05 9.14773 1.89644 5.77208 5.2721C2.39642 8.64775 0.5 13.2261 0.5 18C0.5 22.7739 2.39642 27.3523 5.77208 30.7279C9.14773 34.1036 13.7261 36 18.5 36H45.482L45.461 52.9335L40.1 43.8315C39.3459 42.5508 38.1911 41.5539 36.814 40.9948C35.437 40.4357 33.9141 40.3454 32.4806 40.738C31.0471 41.1305 29.7827 41.9839 28.8825 43.1666C27.9824 44.3492 27.4965 45.7953 27.5 47.2815C27.5056 48.3607 27.7624 49.4238 28.25 50.3865L43.7375 80.28C45.2496 83.2137 47.5416 85.6733 50.3615 87.3882C53.1813 89.1031 56.4196 90.0069 59.72 90H72.5C77.2723 89.9949 81.8477 88.0968 85.2222 84.7223C88.5968 81.3477 90.4948 76.7723 90.5 72V64.5C90.5 64.1022 90.342 63.7207 90.0607 63.4394C89.7794 63.1581 89.3978 63 89 63C88.6022 63 88.2206 63.1581 87.9393 63.4394C87.658 63.7207 87.5 64.1022 87.5 64.5V72C87.4956 75.9769 85.9139 79.7897 83.1018 82.6018C80.2897 85.4139 76.4769 86.9957 72.5 87H59.72C56.9694 87.0063 54.2704 86.2534 51.9203 84.8242C49.5701 83.3951 47.6599 81.3451 46.4 78.9L30.926 49.023C30.6511 48.4828 30.5053 47.8862 30.5 47.28C30.4964 46.4516 30.766 45.6451 31.267 44.9853C31.7679 44.3255 32.4724 43.8491 33.2714 43.63C34.0703 43.4109 34.9192 43.4612 35.6867 43.7731C36.4541 44.085 37.0974 44.6412 37.517 45.3555L45.662 59.187C45.8289 59.4708 46.0844 59.6918 46.3893 59.8159C46.6942 59.9401 47.0315 59.9605 47.3491 59.874C47.6667 59.7875 47.9471 59.5989 48.1469 59.3373C48.3468 59.0758 48.455 58.7557 48.455 58.4265L48.5 20.25C48.5013 19.6898 48.6278 19.137 48.8702 18.632C49.1125 18.127 49.4647 17.6824 49.9009 17.3309C50.337 16.9794 50.8462 16.7298 51.3913 16.6003C51.9363 16.4708 52.5033 16.4648 53.051 16.5825C53.9056 16.7845 54.6649 17.2739 55.2018 17.9688C55.7386 18.6638 56.0204 19.5221 56 20.4V50.25C56 50.6479 56.158 51.0294 56.4393 51.3107C56.7206 51.592 57.1022 51.75 57.5 51.75C57.8978 51.75 58.2794 51.592 58.5607 51.3107C58.842 51.0294 59 50.6479 59 50.25C59.0013 49.6898 59.1278 49.137 59.3702 48.632C59.6125 48.1269 59.9647 47.6824 60.4009 47.3309C60.8371 46.9794 61.3462 46.7298 61.8913 46.6003C62.4363 46.4709 63.0033 46.4648 63.551 46.5825C64.4056 46.7845 65.1649 47.2739 65.7018 47.9688C66.2386 48.6638 66.5204 49.5221 66.5 50.4V51.75C66.5 52.1479 66.658 52.5294 66.9393 52.8107C67.2206 53.092 67.6022 53.25 68 53.25C68.3978 53.25 68.7794 53.092 69.0607 52.8107C69.342 52.5294 69.5 52.1479 69.5 51.75C69.5013 51.1898 69.6278 50.637 69.8702 50.132C70.1125 49.6269 70.4647 49.1824 70.9009 48.8309C71.3371 48.4794 71.8463 48.2298 72.3913 48.1003C72.9363 47.9709 73.5033 47.9648 74.051 48.0825C74.9056 48.2845 75.6649 48.7739 76.2018 49.4688C76.7386 50.1638 77.0204 51.0221 77 51.9V54.75C77 55.1479 77.158 55.5294 77.4393 55.8107C77.7206 56.092 78.1022 56.25 78.5 56.25C78.8978 56.25 79.2794 56.092 79.5607 55.8107C79.842 55.5294 80 55.1479 80 54.75C80.0013 54.1898 80.1278 53.637 80.3702 53.132C80.6125 52.627 80.9647 52.1824 81.4009 51.8309C81.8371 51.4794 82.3463 51.2298 82.8913 51.1003C83.4363 50.9709 84.0033 50.9648 84.551 51.0825C85.4056 51.2845 86.1649 51.7739 86.7018 52.4688C87.2386 53.1638 87.5204 54.0221 87.5 54.9V58.5C87.5 58.8979 87.658 59.2794 87.9393 59.5607C88.2206 59.842 88.6022 60 89 60C89.3978 60 89.7794 59.842 90.0607 59.5607C90.342 59.2794 90.5 58.8979 90.5 58.5V54.9C90.5174 53.3324 89.9957 51.8064 89.0222 50.5776C88.0487 49.3488 86.6825 48.4917 85.1525 48.15ZM53.6525 13.65C52.6694 13.4429 51.6525 13.4575 50.6757 13.6929C49.699 13.9282 48.787 14.3784 48.0061 15.0105C47.2252 15.6427 46.5951 16.441 46.1616 17.3474C45.7281 18.2537 45.5021 19.2453 45.5 20.25L45.485 33H18.5C14.5218 33 10.7064 31.4197 7.8934 28.6066C5.08035 25.7936 3.5 21.9783 3.5 18C3.5 14.0218 5.08035 10.2065 7.8934 7.39342C10.7064 4.58037 14.5218 3.00002 18.5 3.00002H51.5C54.8082 2.98341 58.0287 4.06296 60.6584 6.07005C63.2882 8.07714 65.1792 10.8987 66.0359 14.094C66.8927 17.2894 66.667 20.6785 65.394 23.732C64.1211 26.7855 61.8727 29.3314 59 30.972V20.4C59.0174 18.8324 58.4957 17.3064 57.5222 16.0776C56.5487 14.8488 55.1825 13.9917 53.6525 13.65Z" fill="#262626"/>
<path d="M39.7999 11.1L31.8379 21.717L30.0604 19.9395C29.7775 19.6663 29.3986 19.5151 29.0053 19.5185C28.612 19.5219 28.2358 19.6797 27.9577 19.9578C27.6795 20.2359 27.5218 20.6121 27.5184 21.0054C27.5149 21.3987 27.6661 21.7776 27.9394 22.0605L30.9394 25.0605C31.2206 25.3418 31.6021 25.4999 31.9999 25.5H32.1064C32.321 25.4843 32.5298 25.4226 32.7185 25.3191C32.9071 25.2155 33.0713 25.0726 33.1999 24.9L42.1999 12.9C42.4386 12.5817 42.5411 12.1817 42.4848 11.7879C42.4285 11.394 42.2181 11.0387 41.8999 10.8C41.5816 10.5613 41.1816 10.4588 40.7877 10.5151C40.3939 10.5713 40.0386 10.7817 39.7999 11.1Z" fill="#262626"/>
</g>
<defs>
<clipPath id="clip0_2146_21101">
<rect width="90" height="90" fill="white" transform="translate(0.5)"/>
</clipPath>
</defs>
</svg>
