<svg width="102" height="102" viewBox="0 0 102 102" fill="none" xmlns="http://www.w3.org/2000/svg">
<g clip-path="url(#clip0_2143_43937)">
<path d="M44.8118 88.13C68.7355 88.13 88.1295 68.736 88.1295 44.8123C88.1295 20.8886 68.7355 1.49463 44.8118 1.49463C20.8881 1.49463 1.49414 20.8886 1.49414 44.8123C1.49414 68.736 20.8881 88.13 44.8118 88.13Z" fill="#6FD7A3"/>
<path d="M7.68232 44.8119C7.68232 21.9286 25.4263 3.18955 47.9059 1.60316C22.7155 -0.174881 1.49414 19.7611 1.49414 44.8119C1.49414 69.8634 22.7161 89.7984 47.9059 88.0205C25.4263 86.4342 7.68232 67.6951 7.68232 44.8119Z" fill="#3EC3A4"/>
<path d="M44.8121 81.9413C65.3181 81.9413 81.9416 65.3179 81.9416 44.8119C81.9416 24.3058 65.3181 7.68237 44.8121 7.68237C24.3061 7.68237 7.68262 24.3058 7.68262 44.8119C7.68262 65.3179 24.3061 81.9413 44.8121 81.9413Z" fill="#EAF6FF"/>
<path d="M13.6592 44.8119C13.6592 25.3118 28.6916 9.32295 47.8004 7.80111C46.8147 7.72262 45.8182 7.68237 44.8121 7.68237C24.3062 7.68237 7.68262 24.3057 7.68262 44.8119C7.68262 65.3178 24.306 81.9413 44.8121 81.9413C45.8182 81.9413 46.8147 81.9011 47.8004 81.8226C28.6918 80.3008 13.6592 64.3119 13.6592 44.8119Z" fill="#D8ECFE"/>
<path d="M44.8118 47.9059C46.5206 47.9059 47.9059 46.5206 47.9059 44.8118C47.9059 43.103 46.5206 41.7178 44.8118 41.7178C43.103 41.7178 41.7178 43.103 41.7178 44.8118C41.7178 46.5206 43.103 47.9059 44.8118 47.9059Z" fill="#F7714A"/>
<path d="M78.8473 100.506C90.8092 100.506 100.506 90.8089 100.506 78.8471C100.506 66.8852 90.8092 57.1882 78.8473 57.1882C66.8855 57.1882 57.1885 66.8852 57.1885 78.8471C57.1885 90.8089 66.8855 100.506 78.8473 100.506Z" fill="#F7714A"/>
<path d="M63.1651 78.8471C63.1651 67.8991 71.2879 58.8485 81.8356 57.3928C80.8588 57.258 79.8611 57.1882 78.8473 57.1882C66.8855 57.1882 57.1885 66.8853 57.1885 78.8471C57.1885 90.8089 66.8855 100.506 78.8473 100.506C79.8611 100.506 80.8588 100.436 81.8356 100.301C71.2879 98.8458 63.1651 89.795 63.1651 78.8471Z" fill="#D04F2F"/>
<path d="M78.8476 83.1852C77.1038 83.1852 75.6541 81.843 75.5198 80.1045L74.5833 67.983C74.3912 65.4983 76.3557 63.3765 78.8478 63.3765C81.3398 63.3765 83.3041 65.4983 83.1122 67.983L82.1757 80.1045C82.041 81.843 80.5913 83.1852 78.8476 83.1852Z" fill="#EAF6FF"/>
<path d="M79.5042 80.1049L78.5676 67.9836C78.4312 66.2183 79.3832 64.6361 80.8399 63.868C80.2465 63.555 79.5691 63.3771 78.8477 63.3771C76.3557 63.3771 74.3914 65.499 74.5833 67.9836L75.5198 80.1049C75.6541 81.8433 77.104 83.1856 78.8475 83.1856C79.5916 83.1856 80.2821 82.9412 80.8397 82.526C80.0905 81.968 79.5811 81.1016 79.5042 80.1049Z" fill="#D8ECFE"/>
<path d="M78.848 94.3178C80.5568 94.3178 81.942 92.9325 81.942 91.2237C81.942 89.5149 80.5568 88.1296 78.848 88.1296C77.1392 88.1296 75.7539 89.5149 75.7539 91.2237C75.7539 92.9325 77.1392 94.3178 78.848 94.3178Z" fill="#EAF6FF"/>
<path d="M79.7383 91.2237C79.7383 90.2736 80.1664 89.4238 80.8402 88.8562C80.3019 88.4028 79.6068 88.1296 78.848 88.1296C77.1391 88.1296 75.7539 89.515 75.7539 91.2237C75.7539 92.9324 77.1391 94.3178 78.848 94.3178C79.6068 94.3178 80.3019 94.0446 80.8402 93.5912C80.1664 93.0236 79.7383 92.1736 79.7383 91.2237Z" fill="#D8ECFE"/>
<path d="M44.8119 21.6588C43.9865 21.6588 43.3177 22.3276 43.3177 23.153V40.4734C41.5192 41.0945 40.2236 42.8049 40.2236 44.8118C40.2236 47.3417 42.282 49.4 44.8119 49.4C46.819 49.4 48.5291 48.1045 49.1503 46.306H59.2458C60.0712 46.306 60.7399 45.6372 60.7399 44.8118C60.7399 43.9864 60.0712 43.3176 59.2458 43.3176H49.1503C48.6909 41.9877 47.636 40.9328 46.306 40.4734V23.153C46.306 22.3276 45.637 21.6588 44.8119 21.6588ZM44.8119 46.4117C43.9295 46.4117 43.2119 45.694 43.2119 44.8118C43.2119 43.9297 43.9297 43.2119 44.8119 43.2119C45.694 43.2119 46.4118 43.9297 46.4118 44.8118C46.4118 45.694 45.694 46.4117 44.8119 46.4117Z" fill="black"/>
<path d="M87.8024 57.4962C96.2457 28.8395 74.7871 0 44.8118 0C27.2131 0 11.7132 10.1935 4.39321 25.4384C4.036 26.1821 4.34938 27.0748 5.09347 27.432C5.83696 27.7894 6.72986 27.4759 7.08706 26.7318C13.9056 12.5318 28.3534 2.9883 44.8118 2.9883C72.6192 2.9883 92.7562 29.7731 84.9754 56.5174C83.9514 56.2361 82.8992 56.0233 81.8242 55.8847C84.1291 48.1737 83.9708 39.7853 81.2962 32.1054C81.0249 31.3258 80.1728 30.9142 79.3937 31.1857C78.6143 31.4571 78.2025 32.309 78.4741 33.0883C79.6208 36.3806 80.2724 39.8148 80.4165 43.3177H75.7531C74.9278 43.3177 74.259 43.9865 74.259 44.8118C74.259 45.6372 74.9278 46.306 75.7531 46.306H80.4165C80.2846 49.5118 79.7276 52.6595 78.755 55.6944C66.0613 55.7442 55.7442 66.0613 55.6944 78.755C52.6595 79.7276 49.5116 80.2844 46.306 80.4165V75.7531C46.306 74.9278 45.6372 74.259 44.8118 74.259C43.9865 74.259 43.3177 74.9278 43.3177 75.7531V80.4161C34.6169 80.0555 26.7117 76.5604 20.7042 71.0326L23.9895 67.7473C24.5732 67.1637 24.5732 66.2176 23.9897 65.6343C23.4062 65.0506 22.4601 65.0508 21.8768 65.6341L18.5912 68.9197C13.0637 62.9122 9.56855 55.0069 9.20776 46.3062H13.8707C14.6961 46.3062 15.3649 45.6374 15.3649 44.812C15.3649 43.9866 14.6961 43.3179 13.8707 43.3179H9.20776C9.56835 34.6171 13.0635 26.7119 18.591 20.7046L21.8766 23.9901C22.4605 24.5736 23.4062 24.5734 23.9897 23.9901C24.5732 23.4064 24.5732 22.4605 23.9897 21.877L20.7042 18.5914C26.7117 13.0639 34.6167 9.56875 43.3175 9.20816V13.8711C43.3175 14.6965 43.9863 15.3653 44.8116 15.3653C45.637 15.3653 46.3058 14.6965 46.3058 13.8711V9.20796C54.7981 9.56556 62.7956 12.9575 68.927 18.5833L65.6339 21.8766C65.0504 22.4601 65.0504 23.4062 65.6341 23.9895C66.2174 24.5728 67.1635 24.573 67.7471 23.9893L71.0424 20.6938C72.8766 22.6842 74.4982 24.8986 75.8605 27.3099C76.2663 28.0281 77.1776 28.2815 77.8965 27.8759C78.6149 27.4699 78.8683 26.5585 78.4625 25.8399C71.4942 13.5059 58.4743 6.18818 44.8118 6.18818C23.5257 6.18818 6.18838 23.502 6.18838 44.8116C6.18838 66.0971 23.5016 83.4353 44.8118 83.4353C48.5902 83.4353 52.3067 82.8936 55.8863 81.8234C56.0245 82.89 56.2365 83.9429 56.5196 84.9746C52.7316 86.0769 48.8002 86.6351 44.8118 86.6351C21.7503 86.6351 2.9883 67.8732 2.9883 44.8118C2.9883 40.7989 3.55549 36.8307 4.67391 33.0178C4.9062 32.2259 4.45277 31.3955 3.66087 31.1634C2.86798 30.9307 2.03882 31.385 1.80653 32.1765C0.607821 36.2629 0 40.5138 0 44.8118C0 69.5779 20.042 89.6236 44.8118 89.6236C49.1331 89.6236 53.393 89.0114 57.4958 87.8028C58.4273 90.0249 59.7069 92.1043 61.3029 93.9561C61.842 94.5812 62.7851 94.6514 63.41 94.1123C64.0352 93.5736 64.1051 92.6303 63.5662 92.0051C60.4168 88.351 58.6823 83.6781 58.6823 78.8472C58.6823 67.7656 67.7698 58.2811 79.7674 58.7033C90.4608 59.186 99.0117 68.0367 99.0117 78.8472C99.0117 89.9661 89.9659 99.0119 78.847 99.0119C75.0634 99.0119 71.3761 97.9582 68.1833 95.9648C67.4833 95.5285 66.5617 95.7411 66.1246 96.4412C65.6877 97.141 65.9009 98.0628 66.6009 98.4999C70.2686 100.79 74.5034 102 78.8472 102C91.6139 102 102 91.6139 102 78.8472C102 69.2536 96.1352 61.0042 87.8024 57.4962Z" fill="black"/>
<path d="M84.6011 68.0983C84.7246 66.5003 84.171 64.9092 83.0822 63.733C79.358 59.7101 72.6762 62.6984 73.0928 68.0983L74.0295 80.2195C74.2226 82.7203 76.3387 84.6792 78.8471 84.6792C81.3554 84.6792 83.4715 82.7203 83.6646 80.2197L84.6011 68.0983ZM81.6218 67.868L80.6852 79.9896C80.6115 80.9437 79.8041 81.6909 78.8471 81.6909C77.89 81.6909 77.0828 80.9437 77.0089 79.9894L76.0721 67.8682C75.9478 66.2559 77.2172 64.8705 78.8471 64.8705C80.4609 64.8705 81.7473 66.2401 81.6218 67.868Z" fill="black"/>
<path d="M78.847 86.6351C76.3171 86.6351 74.2588 88.6935 74.2588 91.2233C74.2588 93.7532 76.3171 95.8115 78.847 95.8115C81.3769 95.8115 83.4352 93.7532 83.4352 91.2233C83.4352 88.6935 81.3771 86.6351 78.847 86.6351ZM78.847 92.8235C77.9647 92.8235 77.2471 92.1057 77.2471 91.2235C77.2471 90.3414 77.9649 89.6236 78.847 89.6236C79.7291 89.6236 80.4469 90.3414 80.4469 91.2235C80.4469 92.1057 79.7293 92.8235 78.847 92.8235Z" fill="black"/>
</g>
<defs>
<clipPath id="clip0_2143_43937">
<rect width="102" height="102" fill="white"/>
</clipPath>
</defs>
</svg>
