<svg width="58" height="58" viewBox="0 0 58 58" fill="none" xmlns="http://www.w3.org/2000/svg">
<path fill-rule="evenodd" clip-rule="evenodd" d="M29.0103 3.6394C43.0222 3.6394 54.3855 15.0027 54.3855 29.0146C54.3855 43.0264 43.0222 54.3897 29.0103 54.3897C14.9985 54.3897 3.63519 43.0264 3.63519 29.0146C3.63519 15.0027 14.9985 3.6394 29.0103 3.6394ZM23.7409 37.2566L17.5284 31.039C16.47 29.98 16.4698 28.253 17.5284 27.1942C18.5872 26.1356 20.3219 26.1423 21.373 27.1942L25.7528 31.5774L36.6481 20.6821C37.7069 19.6232 39.4341 19.6232 40.4927 20.6821C41.5515 21.7407 41.55 23.4693 40.4927 24.5267L27.6719 37.3474C26.6146 38.4047 24.886 38.4062 23.8274 37.3474C23.7976 37.3176 23.7689 37.2874 23.7409 37.2566Z" fill="#0E770C"/>
</svg>
