<svg width="28" height="28" viewBox="0 0 28 28" fill="none" xmlns="http://www.w3.org/2000/svg">
    <path d="M25.6304 5.60864H2.36963V25.5176H25.6304V5.60864Z" fill="#E9EAEB"/>
    <path d="M25.6304 5.60864H22.6772V25.5176H25.6304V5.60864Z" fill="#B9BBC1"/>
    <path d="M25.7116 5.60868H2.28857V2.34045C2.28857 2.07932 2.50021 1.86768 2.76135 1.86768H25.2388C25.4999 1.86768 25.7116 2.07932 25.7116 2.34045V5.60868Z" fill="#FDC74F"/>
    <path d="M25.2387 1.86768H22.7583V4.32801H25.7114V2.34045C25.7114 2.07932 25.4997 1.86768 25.2387 1.86768Z" fill="#FCA629"/>
    <path d="M2.36979 11.5352C1.29923 11.5352 0.431396 10.6674 0.431396 9.59679V8.01758H4.30814V9.59679C4.30814 10.6674 3.4403 11.5352 2.36979 11.5352Z" fill="#E60D28"/>
    <path d="M6.2465 11.5352C5.17594 11.5352 4.30811 10.6674 4.30811 9.59679V8.01758H8.18485V9.59679C8.1849 10.6674 7.31707 11.5352 6.2465 11.5352Z" fill="#F2F2F2"/>
    <path d="M10.1232 11.5352C9.05265 11.5352 8.18481 10.6674 8.18481 9.59679V8.01758H12.0616V9.59679C12.0616 10.6674 11.1937 11.5352 10.1232 11.5352Z" fill="#E60D28"/>
    <path d="M13.9999 11.5352C12.9294 11.5352 12.0615 10.6674 12.0615 9.59679V8.01758H15.9383V9.59679C15.9383 10.6674 15.0705 11.5352 13.9999 11.5352Z" fill="#F2F2F2"/>
    <path d="M17.8769 11.5352C16.8063 11.5352 15.9385 10.6674 15.9385 9.59679V8.01758H19.8152V9.59679C19.8152 10.6674 18.9474 11.5352 17.8769 11.5352Z" fill="#E60D28"/>
    <path d="M21.7536 11.5352C20.683 11.5352 19.8152 10.6674 19.8152 9.59679V8.01758H23.6919V9.59679C23.692 10.6674 22.8241 11.5352 21.7536 11.5352Z" fill="#F2F2F2"/>
    <path d="M25.6303 11.5352C24.5597 11.5352 23.6919 10.6674 23.6919 9.59679V8.01758H27.5686V9.59679C27.5687 10.6674 26.7009 11.5352 25.6303 11.5352Z" fill="#E60D28"/>
    <path d="M4.30814 8.01754H0.431396L2.28662 4.32788H5.63333L4.30814 8.01754Z" fill="#FC502A"/>
    <path d="M8.1849 8.01754H4.30811L5.63329 4.32788H8.98L8.1849 8.01754Z" fill="white"/>
    <path d="M12.0616 8.01754H8.18481L8.97992 4.32788H12.3266L12.0616 8.01754Z" fill="#FC502A"/>
    <path d="M15.9383 8.01754H12.0615L12.3266 4.32788H15.6733L15.9383 8.01754Z" fill="white"/>
    <path d="M19.8152 8.01754H15.9384L15.6733 4.32788H19.0201L19.8152 8.01754Z" fill="#FC502A"/>
    <path d="M23.6919 8.01754H19.8151L19.02 4.32788H22.3667L23.6919 8.01754Z" fill="white"/>
    <path d="M27.5686 8.01754H23.6919L22.3667 4.32788H25.7134L27.5686 8.01754Z" fill="#FC502A"/>
    <path d="M26.7045 23.6987H1.29544C0.806477 23.6987 0.410156 24.0951 0.410156 24.5841V25.8814C0.410156 26.02 0.522539 26.1324 0.661117 26.1324H27.3389C27.4775 26.1324 27.5898 26.02 27.5898 25.8814V24.5841C27.5898 24.0951 27.1935 23.6987 26.7045 23.6987Z" fill="#8B8996"/>
    <path d="M26.7046 23.6987H24.6277V26.1323H27.339C27.4776 26.1323 27.5899 26.02 27.5899 25.8814V24.584C27.5899 24.0951 27.1935 23.6987 26.7046 23.6987Z" fill="#706F7F"/>
    <path d="M23.3392 21.0969H11.3996C11.2048 21.0969 11.0469 20.9389 11.0469 20.7442V14.1743C11.0469 13.9795 11.2048 13.8215 11.3996 13.8215H23.3392C23.534 13.8215 23.6919 13.9795 23.6919 14.1743V20.7442C23.6919 20.939 23.534 21.0969 23.3392 21.0969Z" fill="#00C6C8"/>
    <path d="M23.3393 13.8215H20.7297V21.0969H23.3393C23.5341 21.0969 23.692 20.9389 23.692 20.7442V14.1743C23.692 13.9794 23.5341 13.8215 23.3393 13.8215Z" fill="#0FB0C0"/>
    <path d="M9.36997 23.6989H3.92261V14.1743C3.92261 13.9795 4.08055 13.8215 4.27534 13.8215H9.01724C9.21204 13.8215 9.36997 13.9795 9.36997 14.1743V23.6989Z" fill="#00C6C8"/>
    <path d="M9.01724 13.8215H6.40771V23.6989H9.36997V14.1743C9.36997 13.9794 9.21204 13.8215 9.01724 13.8215Z" fill="#0FB0C0"/>
    <path d="M7.84766 19.4006C8.07417 19.4006 8.25781 19.217 8.25781 18.9905V18.2522C8.25781 18.0257 8.07417 17.842 7.84766 17.842C7.62114 17.842 7.4375 18.0257 7.4375 18.2522V18.9905C7.4375 19.217 7.62114 19.4006 7.84766 19.4006Z" fill="black"/>
    <path d="M26.7046 23.2887H26.0405V11.9088C27.1405 11.7141 27.9789 10.7519 27.9789 9.59682V8.01767C27.9789 8.00963 27.9781 8.00175 27.9777 7.99382C27.9774 7.98939 27.9774 7.98496 27.977 7.98054C27.9756 7.96435 27.9733 7.94843 27.97 7.9329C27.9699 7.93197 27.9695 7.9311 27.9693 7.93022C27.9661 7.91529 27.9619 7.90075 27.9571 7.88647C27.9559 7.88286 27.9544 7.87925 27.9531 7.8757C27.9486 7.86345 27.9436 7.85153 27.9379 7.83988C27.9369 7.83775 27.9362 7.8355 27.9352 7.83343L26.1216 4.22684V2.34045C26.1216 1.85362 25.7255 1.45752 25.2387 1.45752H6.58744C6.36092 1.45752 6.17728 1.64116 6.17728 1.86768C6.17728 2.09419 6.36092 2.27783 6.58744 2.27783H25.2387C25.2732 2.27783 25.3013 2.30594 25.3013 2.34045V3.91786H2.69866V2.34045C2.69866 2.30594 2.72677 2.27783 2.76128 2.27783H4.67906C4.90558 2.27783 5.08922 2.09419 5.08922 1.86768C5.08922 1.64116 4.90558 1.45752 4.67906 1.45752H2.76128C2.27445 1.45752 1.87835 1.85362 1.87835 2.34045V4.22684L0.0648594 7.83343C0.0638203 7.83556 0.0631094 7.8378 0.062125 7.83988C0.0564922 7.85153 0.0514609 7.86345 0.0469219 7.8757C0.0456094 7.87931 0.0441875 7.88286 0.0429844 7.88647C0.0381719 7.90075 0.0339609 7.91529 0.0307344 7.93022C0.0305156 7.9311 0.0302422 7.93197 0.0300234 7.9329C0.0267422 7.94849 0.0244453 7.96435 0.0230234 7.98054C0.0226406 7.98496 0.0226406 7.98939 0.0223672 7.99382C0.0219297 8.00175 0.0211641 8.00963 0.0211641 8.01767V9.59682C0.0211641 10.7518 0.859523 11.7141 1.95956 11.9088V23.2887H1.29544C0.581109 23.2887 0 23.8698 0 24.5842V25.8815C0 26.246 0.29657 26.5426 0.661117 26.5426H27.3389C27.7034 26.5426 28 26.246 28 25.8815V24.5842C28 23.8698 27.4189 23.2887 26.7046 23.2887ZM27.1585 9.59688C27.1585 10.4396 26.473 11.1251 25.6303 11.1251C24.7876 11.1251 24.102 10.4396 24.102 9.59688V8.42788H27.1585V9.59688ZM25.4606 4.73817L26.9034 7.60751H23.9804L22.9499 4.73817H25.4606ZM22.0782 4.73817L23.1087 7.60751H20.1463L19.528 4.73817H22.0782ZM23.2818 8.42782V9.59682C23.2818 10.4395 22.5962 11.1251 21.7535 11.1251C20.9109 11.1251 20.2253 10.4395 20.2253 9.59682V8.42782H23.2818ZM18.6889 4.73817L19.3072 7.60751H16.3202L16.1141 4.73817H18.6889ZM19.405 8.42782V9.59682C19.405 10.4395 18.7194 11.1251 17.8768 11.1251C17.0342 11.1251 16.3486 10.4395 16.3486 9.59682V8.42782H19.405ZM12.7084 4.73817H15.2916L15.4977 7.60751H12.5023L12.7084 4.73817ZM12.4718 8.42782H15.5282V9.59682C15.5282 10.4395 14.8427 11.1251 14 11.1251C13.1573 11.1251 12.4718 10.4395 12.4718 9.59682V8.42782ZM14 11.9454C14.8041 11.9454 15.5149 11.539 15.9384 10.921C16.3619 11.539 17.0727 11.9454 17.8768 11.9454C18.6809 11.9454 19.3917 11.539 19.8151 10.921C20.2386 11.539 20.9494 11.9454 21.7535 11.9454C22.5577 11.9454 23.2684 11.539 23.6919 10.921C24.0417 11.4314 24.5877 11.7968 25.2202 11.9088V23.2887H9.78009V14.1742C9.78009 13.7536 9.43786 13.4113 9.0172 13.4113H4.2753C3.85465 13.4113 3.51241 13.7536 3.51241 14.1742V23.2887H2.77988V11.9088C3.41239 11.7968 3.95834 11.4314 4.30812 10.921C4.73162 11.539 5.44239 11.9454 6.24652 11.9454C7.05064 11.9454 7.76141 11.539 8.18491 10.921C8.60841 11.539 9.31919 11.9454 10.1233 11.9454C10.9273 11.9454 11.6382 11.539 12.0617 10.921C12.4851 11.539 13.1959 11.9454 14 11.9454ZM8.95978 14.2316V23.2887H4.33273V14.2316H8.95978ZM4.71822 9.59688V8.42788H7.7747V9.59688C7.7747 10.4396 7.08914 11.1251 6.24646 11.1251C5.40378 11.1251 4.71822 10.4395 4.71822 9.59688ZM9.31115 4.73817H11.8859L11.6798 7.60751H8.6928L9.31115 4.73817ZM8.59502 8.42782H11.6514V9.59682C11.6514 10.4395 10.9659 11.1251 10.1232 11.1251C9.28052 11.1251 8.59502 10.4395 8.59502 9.59682V8.42782ZM8.47197 4.73817L7.85362 7.60751H4.8912L5.92173 4.73817H8.47197ZM2.53941 4.73817H5.05012L4.01959 7.60751H1.09665L2.53941 4.73817ZM0.841477 9.59688V8.42788H3.89796V9.59688C3.89796 10.4396 3.2124 11.1251 2.36972 11.1251C1.52704 11.1251 0.841477 10.4395 0.841477 9.59688ZM27.1797 25.7223H0.820312V24.5841C0.820312 24.3221 1.03343 24.109 1.29544 24.109H26.7045C26.9665 24.109 27.1796 24.3221 27.1796 24.5841V25.7223H27.1797Z" fill="black"/>
    <path d="M10.6367 14.1743V20.7442C10.6367 21.1649 10.979 21.5071 11.3996 21.5071H23.3391C23.7598 21.5071 24.102 21.1649 24.102 20.7442V14.1743C24.102 13.7536 23.7598 13.4114 23.3391 13.4114H18.3236C18.0971 13.4114 17.9134 13.595 17.9134 13.8215C17.9134 14.048 18.0971 14.2317 18.3236 14.2317H23.2818V20.6867H11.457V14.2317H16.3926C16.6191 14.2317 16.8027 14.048 16.8027 13.8215C16.8027 13.595 16.6191 13.4114 16.3926 13.4114H11.3996C10.979 13.4114 10.6367 13.7536 10.6367 14.1743Z" fill="black"/>
</svg>
